<?xml version="1.0" encoding="UTF-8"?><svg id="Camada_2" xmlns="http://www.w3.org/2000/svg" xmlns:xlink="http://www.w3.org/1999/xlink" viewBox="0 0 243.59 390.7"><defs><style>.cls-1{fill:#d7be69;}.cls-2{fill:#efda83;}.cls-3{fill:#ebd67f;}.cls-4{fill:#f0db88;}.cls-5{fill:#f9e58d;}.cls-6{fill:#d8be75;}.cls-7{fill:#ead37d;}.cls-8{fill:#f2dd8a;}.cls-9{fill:#d8bf6a;}.cls-10{fill:#e2c97c;}.cls-11{fill:#dfc67a;}.cls-12{fill:#d4b971;}.cls-13{fill:#f7e38b;}.cls-14{fill:#dbc177;}.cls-15{fill:#eed886;}.cls-16{fill:#fce891;}.cls-17{fill:#ddc479;}.cls-18{fill:#f8e48e;}.cls-19{fill:#f3de8a;}.cls-20{fill:#ddc570;}.cls-21{fill:#e8d081;}.cls-22{fill:#d7bd74;}.cls-23{fill:#fbe78f;}.cls-24{fill:#e8d17b;}.cls-25{fill:#fae68e;}.cls-26{fill:#f5e18c;}.cls-27{fill:#e1c87c;}.cls-28{fill:#fce991;}.cls-29{fill:#f4e089;}.cls-30{fill:#f2dd86;}.cls-31{fill:#edd881;}.cls-32{fill:#d3b871;}.cls-33{fill:#fbe791;}.cls-34{fill:#e7d07a;}.cls-35{fill:#dcc278;}.cls-36{fill:#d5ba72;}.cls-37{fill:#d5bb73;}.cls-38{fill:#e5cd7f;}.cls-39{fill:#e3cc76;}.cls-40{fill:#e0c873;}.cls-41{fill:#fce992;}.cls-42{fill:#e9d27c;}.cls-43{fill:#d9c06b;}.cls-44{fill:#e4cd77;}.cls-45{fill:#edd785;}.cls-46{clip-path:url(#clippath-1);}.cls-47{fill:#dac076;}.cls-48{fill:#dcc378;}.cls-49{fill:#fdea93;}.cls-50{fill:#f3de87;}.cls-51{fill:#e5ce78;}.cls-52{fill:#e9d282;}.cls-53{fill:#f9e58f;}.cls-54{fill:#e6cf79;}.cls-55{fill:#d2b770;}.cls-56{fill:#d6bc73;}.cls-57{fill:#e3cb75;}.cls-58{fill:#f8e48c;}.cls-59{fill:#dac16c;}.cls-60{fill:#e0c77b;}.cls-61{fill:#ebd584;}.cls-62{fill:#f1dc89;}.cls-63{fill:#fae690;}.cls-64{fill:#ecd685;}.cls-65{fill:#dbc26d;}.cls-66{fill:#feeb93;}.cls-67{fill:#eed982;}.cls-68{fill:#f6e28d;}.cls-69{fill:#dbc36e;}.cls-70{clip-path:url(#clippath);}.cls-71{fill:#ffec94;}.cls-72{fill:#e2ca7d;}.cls-73{fill:#f7e38e;}.cls-74{fill:#f5e08c;}.cls-75{fill:#ead483;}.cls-76{fill:none;}.cls-77{fill:#dfc772;}.cls-78{fill:#efd987;}.cls-79{fill:#ebd47e;}.cls-80{fill:#dec671;}.cls-81{fill:#efda88;}.cls-82{fill:#e6ce80;}.cls-83{fill:#e4cc7f;}.cls-84{fill:#fdea92;}.cls-85{fill:#e2ca74;}.cls-86{fill:#e1c974;}.cls-87{fill:#e9d383;}.cls-88{fill:#f4df8b;}.cls-89{fill:#e3cb7e;}.cls-90{fill:#dcc46f;}.cls-91{fill:#fbe890;}.cls-92{fill:#f0db84;}.cls-93{fill:#dec57a;}.cls-94{fill:#e7cf81;}.cls-95{fill:#f6e28a;}.cls-96{fill:#f1dc85;}.cls-97{fill:#f5e189;}.cls-98{fill:#ecd780;}.cls-99{fill:#d9bf76;}.cls-100{fill:#f3df88;}</style><clipPath id="clippath"><path class="cls-76" d="M231.62,154.46c-23.08-40.56-60.87-53.22-67.61-55.8v117.16c.04,1.67-.01,3.31-.13,4.93,.08,1.11,.13,2.22,.13,3.34,0,25.03-20.79,47.94-48.36,47.94s-48.79-22.91-48.79-47.94,20.79-48.36,48.79-48.36c10.6,0,20.18,3.39,27.98,9,.44,.25,.88,.5,1.3,.76V9.52c0-5.02,3.87-9.16,8.87-9.5,4.92-.29,9.43,3.24,10.11,8.2,.69,4.9,5.02,10.74,8.85,15.89l1.16,1.56c6.49,8.78,15.66,14.92,25.38,21.43,13.01,8.72,25.64,18.19,34.33,33.81,22.94,41.27-.81,73-2.01,73.54Zm-55.03-26.31v58.32c6.8,10.95,10.74,23.86,10.74,37.68,0,39.19-32.13,71.08-71.62,71.08s-72.16-31.88-72.16-71.08,32.37-71.62,72.16-71.62c5.98,0,11.78,.74,17.34,2.13v-42.24c-5.68-.83-11.47-1.25-17.34-1.25-31.74,0-61.28,12.28-83.18,34.58C11.86,166.8,0,194.98,0,223.06v147.23c0,9.82,8.43,20.41,22.04,20.41s21.5-10.6,21.5-20.41v-56.53l14.09,7.65c18.56,10.07,38.09,15.18,58.07,15.18,31.86,0,61.36-12.36,83.06-34.8,20.4-21.1,32.1-49.39,32.1-77.64s-11.7-56.96-32.11-78.13c-6.7-6.95-14.14-12.92-22.17-17.87Z"/></clipPath><clipPath id="clippath-1"><path class="cls-76" d="M22.04,386.64c-11.11,0-17.98-8.49-17.98-16.35V223.06c0-27.03,11.43-54.17,31.36-74.47,21.13-21.52,49.64-33.37,80.29-33.37,4.44,0,8.89,.25,13.28,.76v33.66c-4.37-.78-8.82-1.17-13.28-1.17-42.03,0-76.23,33.95-76.23,75.68s34.19,75.14,76.23,75.14,75.68-33.71,75.68-75.14c0-13.71-3.71-27.1-10.74-38.82v-49.61c5.43,3.89,10.52,8.28,15.19,13.12,19.69,20.42,30.97,47.86,30.97,75.31s-11.28,54.47-30.96,74.82c-20.93,21.64-49.39,33.57-80.14,33.57-19.29,0-38.18-4.94-56.14-14.69l-20.09-10.91v63.36c0,7.86-6.67,16.35-17.44,16.35Zm93.61-118.68c-12.17,0-23.53-4.75-32-13.37-8.09-8.24-12.73-19.36-12.73-30.51,0-24.43,20.06-44.3,44.73-44.3,9.26,0,18.12,2.85,25.61,8.24l.18,.13,.19,.11c.4,.23,.81,.46,1.2,.7l6.17,3.74V9.52c0-2.86,2.24-5.26,5.09-5.45,.07,0,.17,0,.28,0,2.78,0,5.16,2.03,5.53,4.72,.83,5.96,5.5,12.23,9.62,17.76l1.16,1.56c6.89,9.33,16.34,15.65,26.34,22.36,12.14,8.14,24.67,17.32,33.07,32.43,16.9,30.4,7.2,54.53,1.76,64.09-11.21-17.52-31.14-38.97-65.39-51.74-.39-.14-.72-.27-1-.38l-5.51-2.11v123.15c.03,1.49,0,3.01-.12,4.53l-.02,.3,.02,.3c.08,1.17,.12,2.14,.12,3.05,0,11.14-4.62,22.26-12.69,30.52-8.41,8.61-19.64,13.36-31.62,13.36Z"/></clipPath></defs><g id="LOGO"><g><g class="cls-70"><polygon class="cls-55" points="0 378.26 12.44 390.7 0 390.7 0 378.26"/><polygon class="cls-55" points="0 373.2 17.5 390.7 12.44 390.7 0 378.26 0 373.2"/><polygon class="cls-32" points="0 368.14 22.57 390.7 17.5 390.7 0 373.2 0 368.14"/><polygon class="cls-12" points="0 363.07 27.63 390.7 22.57 390.7 0 368.14 0 363.07"/><polygon class="cls-36" points="0 358.01 32.69 390.7 27.63 390.7 0 363.07 0 358.01"/><polygon class="cls-37" points="0 352.95 37.75 390.7 32.69 390.7 0 358.01 0 352.95"/><polygon class="cls-56" points="0 347.89 42.82 390.7 37.75 390.7 0 352.95 0 347.89"/><polygon class="cls-22" points="0 342.82 47.88 390.7 42.82 390.7 0 347.89 0 342.82"/><polygon class="cls-6" points="0 337.76 52.94 390.7 47.88 390.7 0 342.82 0 337.76"/><polygon class="cls-99" points="0 332.7 58 390.7 52.94 390.7 0 337.76 0 332.7"/><polygon class="cls-47" points="0 327.64 63.07 390.7 58 390.7 0 332.7 0 327.64"/><polygon class="cls-14" points="0 322.57 68.13 390.7 63.07 390.7 0 327.64 0 322.57"/><polygon class="cls-35" points="0 317.51 73.19 390.7 68.13 390.7 0 322.57 0 317.51"/><polygon class="cls-48" points="0 312.45 78.25 390.7 73.19 390.7 0 317.51 0 312.45"/><polygon class="cls-17" points="0 307.39 83.32 390.7 78.25 390.7 0 312.45 0 307.39"/><polygon class="cls-93" points="0 302.32 88.38 390.7 83.32 390.7 0 307.39 0 302.32"/><polygon class="cls-11" points="0 297.26 93.44 390.7 88.38 390.7 0 302.32 0 297.26"/><polygon class="cls-60" points="0 292.2 98.5 390.7 93.44 390.7 0 297.26 0 292.2"/><polygon class="cls-27" points="0 287.13 103.57 390.7 98.5 390.7 0 292.2 0 287.13"/><polygon class="cls-10" points="0 282.07 108.63 390.7 103.57 390.7 0 287.13 0 282.07"/><polygon class="cls-72" points="0 277.01 113.56 390.57 113.43 390.7 108.63 390.7 0 282.07 0 277.01"/><polygon class="cls-89" points="0 271.95 116.09 388.04 113.56 390.57 0 277.01 0 271.95"/><polygon class="cls-83" points="0 266.88 118.62 385.51 116.09 388.04 0 271.95 0 266.88"/><polygon class="cls-38" points="0 261.82 121.15 382.97 118.62 385.51 0 266.88 0 261.82"/><polygon class="cls-82" points="0 256.76 123.68 380.44 121.15 382.97 0 261.82 0 256.76"/><polygon class="cls-94" points="0 251.7 126.22 377.91 123.68 380.44 0 256.76 0 251.7"/><polygon class="cls-21" points="0 246.63 128.75 375.38 126.22 377.91 0 251.7 0 246.63"/><polygon class="cls-52" points="0 241.57 131.28 372.85 128.75 375.38 0 246.63 0 241.57"/><polygon class="cls-87" points="0 236.51 133.81 370.32 131.28 372.85 0 241.57 0 236.51"/><polygon class="cls-75" points="0 231.45 136.34 367.79 133.81 370.32 0 236.51 0 231.45"/><polygon class="cls-61" points="0 226.38 138.87 365.26 136.34 367.79 0 231.45 0 226.38"/><polygon class="cls-64" points="0 221.32 141.4 362.72 138.87 365.26 0 226.38 0 221.32"/><polygon class="cls-45" points="0 216.26 143.94 360.19 141.4 362.72 0 221.32 0 216.26"/><polygon class="cls-15" points="0 211.19 146.47 357.66 143.94 360.19 0 216.26 0 211.19"/><polygon class="cls-78" points="0 206.13 149 355.13 146.47 357.66 0 211.19 0 206.13"/><polygon class="cls-81" points="0 201.07 151.53 352.6 149 355.13 0 206.13 0 201.07"/><polygon class="cls-4" points="0 196.01 154.06 350.07 151.53 352.6 0 201.07 0 196.01"/><polygon class="cls-62" points="0 190.94 156.59 347.54 154.06 350.07 0 196.01 0 190.94"/><polygon class="cls-8" points="0 185.88 159.12 345 156.59 347.54 0 190.94 0 185.88"/><polygon class="cls-19" points="0 180.82 161.65 342.47 159.12 345 0 185.88 0 180.82"/><polygon class="cls-88" points="0 175.76 164.19 339.94 161.65 342.47 0 180.82 0 175.76"/><polygon class="cls-74" points="0 175.04 2.17 172.87 166.72 337.41 164.19 339.94 0 175.76 0 175.04"/><rect class="cls-26" x="83.92" y="137.52" width="3.58" height="232.7" transform="translate(-154.41 134.96) rotate(-45)"/><rect class="cls-68" x="86.45" y="134.99" width="3.58" height="232.7" transform="translate(-151.88 136.01) rotate(-45)"/><rect class="cls-73" x="88.98" y="132.46" width="3.58" height="232.7" transform="translate(-149.35 137.06) rotate(-45)"/><rect class="cls-18" x="91.51" y="129.93" width="3.58" height="232.7" transform="translate(-146.82 138.11) rotate(-45)"/><rect class="cls-53" x="94.05" y="127.4" width="3.58" height="232.7" transform="translate(-144.29 139.16) rotate(-45)"/><rect class="cls-63" x="96.58" y="124.87" width="3.58" height="232.7" transform="translate(-141.75 140.21) rotate(-45)"/><rect class="cls-33" x="99.11" y="122.33" width="3.58" height="232.7" transform="translate(-139.22 141.26) rotate(-45)"/><rect class="cls-16" x="101.64" y="119.8" width="3.58" height="232.7" transform="translate(-136.69 142.3) rotate(-45)"/><rect class="cls-41" x="104.17" y="117.27" width="3.58" height="232.7" transform="translate(-134.16 143.35) rotate(-45)"/><rect class="cls-49" x="106.7" y="114.74" width="3.58" height="232.7" transform="translate(-131.63 144.4) rotate(-45)"/><rect class="cls-66" x="109.23" y="112.21" width="3.58" height="232.7" transform="translate(-129.1 145.45) rotate(-45)"/><rect class="cls-71" x="111.77" y="109.68" width="3.58" height="232.7" transform="translate(-126.57 146.5) rotate(-45)"/><rect class="cls-71" x="114.22" y="106.95" width="4.12" height="232.7" transform="translate(-123.84 147.63) rotate(-45)"/><rect class="cls-66" x="117.13" y="104.04" width="4.12" height="232.7" transform="translate(-120.93 148.83) rotate(-45)"/><rect class="cls-84" x="120.05" y="101.12" width="4.12" height="232.7" transform="translate(-118.01 150.04) rotate(-45)"/><rect class="cls-28" x="122.97" y="98.2" width="4.12" height="232.7" transform="translate(-115.09 151.25) rotate(-45)"/><rect class="cls-91" x="125.88" y="95.29" width="4.12" height="232.7" transform="translate(-112.18 152.46) rotate(-45)"/><rect class="cls-23" x="128.8" y="92.37" width="4.12" height="232.7" transform="translate(-109.26 153.67) rotate(-45)"/><rect class="cls-25" x="131.72" y="89.45" width="4.12" height="232.7" transform="translate(-106.34 154.87) rotate(-45)"/><rect class="cls-5" x="134.63" y="86.54" width="4.12" height="232.7" transform="translate(-103.43 156.08) rotate(-45)"/><rect class="cls-58" x="137.55" y="83.62" width="4.12" height="232.7" transform="translate(-100.51 157.29) rotate(-45)"/><rect class="cls-13" x="140.47" y="80.71" width="4.12" height="232.7" transform="translate(-97.59 158.5) rotate(-45)"/><polygon class="cls-95" points="61.71 113.33 63.88 111.16 65.38 111.16 229.17 274.95 226.26 277.87 61.71 113.33"/><polygon class="cls-97" points="71.22 111.16 230.88 270.82 230.88 273.25 229.17 274.95 65.38 111.16 71.22 111.16"/><polygon class="cls-29" points="77.05 111.16 230.88 264.99 230.88 270.82 71.22 111.16 77.05 111.16"/><polygon class="cls-100" points="82.88 111.16 230.88 259.15 230.88 264.99 77.05 111.16 82.88 111.16"/><polygon class="cls-50" points="88.71 111.16 230.88 253.32 230.88 259.15 82.88 111.16 88.71 111.16"/><polygon class="cls-30" points="94.55 111.16 230.88 247.49 230.88 253.32 88.71 111.16 94.55 111.16"/><polygon class="cls-96" points="100.38 111.16 230.88 241.65 230.88 247.49 94.55 111.16 100.38 111.16"/><polygon class="cls-92" points="106.21 111.16 230.88 235.82 230.88 241.65 100.38 111.16 106.21 111.16"/><polygon class="cls-2" points="112.05 111.16 230.88 229.99 230.88 235.82 106.21 111.16 112.05 111.16"/><polygon class="cls-67" points="117.88 111.16 230.88 224.16 230.88 229.99 112.05 111.16 117.88 111.16"/><polygon class="cls-31" points="123.71 111.16 230.88 218.32 230.88 224.16 117.88 111.16 123.71 111.16"/><polygon class="cls-98" points="129.55 111.16 230.88 212.49 230.88 218.32 123.71 111.16 129.55 111.16"/><polygon class="cls-3" points="135.38 111.16 230.88 206.66 230.88 212.49 129.55 111.16 135.38 111.16"/><polygon class="cls-79" points="141.21 111.16 230.88 200.82 230.88 206.66 135.38 111.16 141.21 111.16"/><polygon class="cls-7" points="147.05 111.16 230.88 194.99 230.88 200.82 141.21 111.16 147.05 111.16"/><polygon class="cls-42" points="152.88 111.16 230.88 189.16 230.88 194.99 147.05 111.16 152.88 111.16"/><polygon class="cls-24" points="158.71 111.16 230.88 183.32 230.88 189.16 152.88 111.16 158.71 111.16"/><polygon class="cls-34" points="164.54 111.16 230.88 177.49 230.88 183.32 158.71 111.16 164.54 111.16"/><polygon class="cls-54" points="170.38 111.16 230.88 171.66 230.88 177.49 164.54 111.16 170.38 111.16"/><polygon class="cls-51" points="176.21 111.16 230.88 165.82 230.88 171.66 170.38 111.16 176.21 111.16"/><polygon class="cls-44" points="182.04 111.16 230.88 159.99 230.88 165.82 176.21 111.16 182.04 111.16"/><polygon class="cls-39" points="187.88 111.16 230.88 154.16 230.88 159.99 182.04 111.16 187.88 111.16"/><polygon class="cls-57" points="193.71 111.16 230.88 148.33 230.88 154.16 187.88 111.16 193.71 111.16"/><polygon class="cls-85" points="199.54 111.16 230.88 142.49 230.88 148.33 193.71 111.16 199.54 111.16"/><polygon class="cls-86" points="205.38 111.16 230.88 136.66 230.88 142.49 199.54 111.16 205.38 111.16"/><polygon class="cls-40" points="211.21 111.16 230.88 130.83 230.88 136.66 205.38 111.16 211.21 111.16"/><polygon class="cls-77" points="217.04 111.16 230.88 124.99 230.88 130.83 211.21 111.16 217.04 111.16"/><polygon class="cls-80" points="222.88 111.16 230.88 119.16 230.88 124.99 217.04 111.16 222.88 111.16"/><polygon class="cls-20" points="228.71 111.16 230.88 113.33 230.88 119.16 222.88 111.16 228.71 111.16"/><polygon class="cls-90" points="230.88 113.33 228.71 111.16 230.88 111.16 230.88 113.33"/><polygon class="cls-81" points="66.86 267.93 70.96 272.03 66.86 272.03 66.86 267.93"/><polygon class="cls-4" points="66.86 262.87 76.02 272.03 70.96 272.03 66.86 267.93 66.86 262.87"/><polygon class="cls-62" points="66.86 257.81 81.08 272.03 76.02 272.03 66.86 262.87 66.86 257.81"/><polygon class="cls-8" points="66.86 252.74 86.14 272.03 81.08 272.03 66.86 257.81 66.86 252.74"/><polygon class="cls-19" points="66.86 247.68 91.21 272.03 86.14 272.03 66.86 252.74 66.86 247.68"/><polygon class="cls-88" points="66.86 242.62 96.27 272.03 91.21 272.03 66.86 247.68 66.86 242.62"/><polygon class="cls-74" points="66.86 237.56 101.33 272.03 96.27 272.03 66.86 242.62 66.86 237.56"/><polygon class="cls-26" points="66.86 232.49 106.39 272.03 101.33 272.03 66.86 237.56 66.86 232.49"/><polygon class="cls-68" points="66.86 227.43 111.46 272.03 106.39 272.03 66.86 232.49 66.86 227.43"/><polygon class="cls-73" points="66.86 222.37 116.52 272.03 111.46 272.03 66.86 227.43 66.86 222.37"/><polygon class="cls-18" points="66.86 217.31 121.58 272.03 116.52 272.03 66.86 222.37 66.86 217.31"/><polygon class="cls-53" points="66.86 212.24 126.65 272.03 121.58 272.03 66.86 217.31 66.86 212.24"/><polygon class="cls-63" points="66.86 207.18 131.71 272.03 126.65 272.03 66.86 212.24 66.86 207.18"/><polygon class="cls-33" points="66.86 202.12 136.77 272.03 131.71 272.03 66.86 207.18 66.86 202.12"/><polygon class="cls-16" points="66.86 197.06 141.83 272.03 136.77 272.03 66.86 202.12 66.86 197.06"/><polygon class="cls-41" points="66.86 191.99 146.47 271.6 146.05 272.03 141.83 272.03 66.86 197.06 66.86 191.99"/><polygon class="cls-49" points="66.86 186.93 149.01 269.07 146.47 271.6 66.86 191.99 66.86 186.93"/><polygon class="cls-66" points="66.86 181.87 151.54 266.54 149.01 269.07 66.86 186.93 66.86 181.87"/><polygon class="cls-71" points="66.86 176.8 154.07 264.01 151.54 266.54 66.86 181.87 66.86 176.8"/><polygon class="cls-71" points="66.86 170.97 156.98 261.09 154.07 264.01 66.86 176.8 66.86 170.97"/><polygon class="cls-66" points="66.86 165.14 159.9 258.18 156.98 261.09 66.86 170.97 66.86 165.14"/><polygon class="cls-84" points="66.86 159.31 162.82 255.26 159.9 258.18 66.86 165.14 66.86 159.31"/><polygon class="cls-28" points="66.86 153.47 165.73 252.34 162.82 255.26 66.86 159.31 66.86 153.47"/><polygon class="cls-91" points="66.86 147.64 168.65 249.43 165.73 252.34 66.86 153.47 66.86 147.64"/><polygon class="cls-23" points="66.86 141.81 171.57 246.51 168.65 249.43 66.86 147.64 66.86 141.81"/><polygon class="cls-25" points="66.86 135.97 174.48 243.59 171.57 246.51 66.86 141.81 66.86 135.97"/><polygon class="cls-5" points="66.86 130.14 177.4 240.68 174.48 243.59 66.86 135.97 66.86 130.14"/><polygon class="cls-58" points="66.86 124.31 180.32 237.76 177.4 240.68 66.86 130.14 66.86 124.31"/><polygon class="cls-13" points="66.86 118.47 183.23 234.84 180.32 237.76 66.86 124.31 66.86 118.47"/><polygon class="cls-95" points="66.86 112.64 186.15 231.93 183.23 234.84 66.86 118.47 66.86 112.64"/><polygon class="cls-97" points="66.86 106.81 189.07 229.01 186.15 231.93 66.86 112.64 66.86 106.81"/><polygon class="cls-29" points="66.86 100.98 191.98 226.09 189.07 229.01 66.86 106.81 66.86 100.98"/><polygon class="cls-100" points="66.86 95.14 194.9 223.18 191.98 226.09 66.86 100.98 66.86 95.14"/><polygon class="cls-50" points="66.86 89.31 197.82 220.26 194.9 223.18 66.86 95.14 66.86 89.31"/><polygon class="cls-30" points="66.86 83.48 200.73 217.35 197.82 220.26 66.86 89.31 66.86 83.48"/><polygon class="cls-96" points="66.86 79.47 67.78 78.56 203.65 214.43 200.73 217.35 66.86 83.48 66.86 79.47"/><rect class="cls-92" x="135.11" y="48.96" width="4.12" height="192.15" transform="translate(-62.38 139.48) rotate(-45)"/><rect class="cls-2" x="138.03" y="46.04" width="4.12" height="192.15" transform="translate(-59.46 140.68) rotate(-45)"/><rect class="cls-67" x="140.94" y="43.13" width="4.12" height="192.15" transform="translate(-56.55 141.89) rotate(-45)"/><rect class="cls-31" x="143.86" y="40.21" width="4.12" height="192.15" transform="translate(-53.63 143.1) rotate(-45)"/><rect class="cls-98" x="146.78" y="37.29" width="4.12" height="192.15" transform="translate(-50.71 144.31) rotate(-45)"/><rect class="cls-3" x="149.69" y="34.38" width="4.12" height="192.15" transform="translate(-47.8 145.52) rotate(-45)"/><rect class="cls-79" x="152.61" y="31.46" width="4.12" height="192.15" transform="translate(-44.88 146.72) rotate(-45)"/><rect class="cls-7" x="155.53" y="28.54" width="4.12" height="192.15" transform="translate(-41.96 147.93) rotate(-45)"/><rect class="cls-42" x="158.44" y="25.63" width="4.12" height="192.15" transform="translate(-39.05 149.14) rotate(-45)"/><rect class="cls-24" x="161.36" y="22.71" width="4.12" height="192.15" transform="translate(-36.13 150.35) rotate(-45)"/><rect class="cls-34" x="164.28" y="19.79" width="4.12" height="192.15" transform="translate(-33.21 151.56) rotate(-45)"/><rect class="cls-54" x="167.19" y="16.88" width="4.12" height="192.15" transform="translate(-30.3 152.76) rotate(-45)"/><rect class="cls-51" x="170.11" y="13.96" width="4.12" height="192.15" transform="translate(-27.38 153.97) rotate(-45)"/><rect class="cls-44" x="173.02" y="11.04" width="4.12" height="192.15" transform="translate(-24.46 155.18) rotate(-45)"/><rect class="cls-39" x="175.94" y="8.13" width="4.12" height="192.15" transform="translate(-21.55 156.39) rotate(-45)"/><rect class="cls-57" x="178.86" y="5.21" width="4.12" height="192.15" transform="translate(-18.63 157.6) rotate(-45)"/><rect class="cls-85" x="181.77" y="2.3" width="4.12" height="192.15" transform="translate(-15.71 158.8) rotate(-45)"/><rect class="cls-86" x="184.69" y="-.62" width="4.12" height="192.15" transform="translate(-12.8 160.01) rotate(-45)"/><polygon class="cls-40" points="120.28 26.06 123.19 23.14 256.58 156.53 256.58 161.5 256.15 161.93 120.28 26.06"/><polygon class="cls-77" points="123.19 23.14 126.11 20.23 256.58 150.7 256.58 156.53 123.19 23.14"/><polygon class="cls-80" points="126.11 20.23 129.03 17.31 256.58 144.86 256.58 150.7 126.11 20.23"/><polygon class="cls-20" points="129.03 17.31 131.94 14.39 256.58 139.03 256.58 144.86 129.03 17.31"/><polygon class="cls-90" points="131.94 14.39 134.86 11.48 256.58 133.2 256.58 139.03 131.94 14.39"/><polygon class="cls-69" points="134.86 11.48 137.78 8.56 256.58 127.36 256.58 133.2 134.86 11.48"/><polygon class="cls-65" points="137.78 8.56 140.69 5.64 256.58 121.53 256.58 127.36 137.78 8.56"/><polygon class="cls-59" points="140.69 5.64 143.61 2.73 256.58 115.7 256.58 121.53 140.69 5.64"/><polygon class="cls-43" points="143.61 2.73 146.52 -.19 256.58 109.86 256.58 115.7 143.61 2.73"/><polygon class="cls-9" points="146.52 -.19 146.61 -.27 152.28 -.27 256.58 104.03 256.58 109.86 146.52 -.19"/><polygon class="cls-1" points="158.11 -.27 256.58 98.2 256.58 104.03 152.28 -.27 158.11 -.27"/><polygon class="cls-1" points="256.58 98.2 158.11 -.27 256.58 -.27 256.58 98.2"/></g><g class="cls-46"><polygon class="cls-55" points="226.88 267.96 246.99 247.85 246.99 267.96 226.88 267.96"/><polygon class="cls-55" points="223.68 267.96 246.99 244.66 246.99 247.85 226.88 267.96 223.68 267.96"/><polygon class="cls-32" points="220.49 267.96 246.99 241.46 246.99 244.66 223.68 267.96 220.49 267.96"/><polygon class="cls-12" points="217.29 267.96 246.99 238.27 246.99 241.46 220.49 267.96 217.29 267.96"/><polygon class="cls-36" points="214.1 267.96 246.99 235.07 246.99 238.27 217.29 267.96 214.1 267.96"/><polygon class="cls-37" points="210.9 267.96 246.99 231.88 246.99 235.07 214.1 267.96 210.9 267.96"/><polygon class="cls-56" points="207.71 267.96 246.99 228.69 246.99 231.88 210.9 267.96 207.71 267.96"/><polygon class="cls-22" points="204.52 267.96 246.99 225.49 246.99 228.69 207.71 267.96 204.52 267.96"/><polygon class="cls-6" points="201.32 267.96 246.99 222.3 246.99 225.49 204.52 267.96 201.32 267.96"/><polygon class="cls-99" points="198.13 267.96 246.99 219.1 246.99 222.3 201.32 267.96 198.13 267.96"/><polygon class="cls-47" points="194.93 267.96 246.99 215.91 246.99 219.1 198.13 267.96 194.93 267.96"/><polygon class="cls-14" points="191.74 267.96 246.99 212.71 246.99 215.91 194.93 267.96 191.74 267.96"/><polygon class="cls-35" points="188.55 267.96 246.99 209.52 246.99 212.71 191.74 267.96 188.55 267.96"/><polygon class="cls-48" points="185.35 267.96 246.99 206.33 246.99 209.52 188.55 267.96 185.35 267.96"/><polygon class="cls-17" points="182.16 267.96 246.99 203.13 246.99 206.33 185.35 267.96 182.16 267.96"/><polygon class="cls-93" points="178.96 267.96 246.99 199.94 246.99 203.13 182.16 267.96 178.96 267.96"/><polygon class="cls-11" points="175.77 267.96 246.99 196.74 246.99 199.94 178.96 267.96 175.77 267.96"/><polygon class="cls-60" points="172.57 267.96 246.99 193.55 246.99 196.74 175.77 267.96 172.57 267.96"/><polygon class="cls-27" points="169.38 267.96 246.99 190.36 246.99 193.55 172.57 267.96 169.38 267.96"/><polygon class="cls-10" points="166.19 267.96 246.99 187.16 246.99 190.36 169.38 267.96 166.19 267.96"/><polygon class="cls-72" points="162.99 267.96 246.99 183.97 246.99 187.16 166.19 267.96 162.99 267.96"/><polygon class="cls-89" points="159.8 267.96 246.99 180.77 246.99 183.97 162.99 267.96 159.8 267.96"/><polygon class="cls-83" points="156.6 267.96 246.99 177.58 246.99 180.77 159.8 267.96 156.6 267.96"/><polygon class="cls-38" points="153.41 267.96 246.99 174.38 246.99 177.58 156.6 267.96 153.41 267.96"/><polygon class="cls-82" points="150.22 267.96 246.99 171.19 246.99 174.38 153.41 267.96 150.22 267.96"/><polygon class="cls-94" points="147.02 267.96 246.99 168 246.99 171.19 150.22 267.96 147.02 267.96"/><polygon class="cls-21" points="143.83 267.96 246.99 164.8 246.99 168 147.02 267.96 143.83 267.96"/><polygon class="cls-52" points="140.63 267.96 246.99 161.61 246.99 164.8 143.83 267.96 140.63 267.96"/><polygon class="cls-87" points="137.44 267.96 246.99 158.41 246.99 161.61 140.63 267.96 137.44 267.96"/><polygon class="cls-75" points="134.24 267.96 246.99 155.22 246.99 158.41 137.44 267.96 134.24 267.96"/><polygon class="cls-61" points="131.05 267.96 246.99 152.03 246.99 155.22 134.24 267.96 131.05 267.96"/><polygon class="cls-64" points="127.86 267.96 246.99 148.83 246.99 152.03 131.05 267.96 127.86 267.96"/><polygon class="cls-45" points="124.66 267.96 246.99 145.64 246.99 148.83 127.86 267.96 124.66 267.96"/><polygon class="cls-15" points="121.47 267.96 246.99 142.44 246.99 145.64 124.66 267.96 121.47 267.96"/><polygon class="cls-78" points="118.27 267.96 246.99 139.25 246.99 142.44 121.47 267.96 118.27 267.96"/><polygon class="cls-81" points="115.08 267.96 246.99 136.05 246.99 139.25 118.27 267.96 115.08 267.96"/><polygon class="cls-4" points="111.88 267.96 246.99 132.86 246.99 136.05 115.08 267.96 111.88 267.96"/><polygon class="cls-62" points="108.69 267.96 246.99 129.67 246.99 132.86 111.88 267.96 108.69 267.96"/><polygon class="cls-8" points="105.5 267.96 246.99 126.47 246.99 129.67 108.69 267.96 105.5 267.96"/><polygon class="cls-19" points="102.3 267.96 246.99 123.28 246.99 126.47 105.5 267.96 102.3 267.96"/><polygon class="cls-88" points="99.11 267.96 246.99 120.08 246.99 123.28 102.3 267.96 99.11 267.96"/><polygon class="cls-74" points="95.91 267.96 246.99 116.89 246.99 120.08 99.11 267.96 95.91 267.96"/><polygon class="cls-26" points="94.04 267.96 93.38 267.31 246.99 113.69 246.99 116.89 95.91 267.96 94.04 267.96"/><polygon class="cls-68" points="93.38 267.31 91.78 265.71 246.99 110.5 246.99 113.69 93.38 267.31"/><polygon class="cls-73" points="91.78 265.71 90.18 264.11 246.99 107.31 246.99 110.5 91.78 265.71"/><polygon class="cls-18" points="90.18 264.11 88.59 262.51 246.99 104.11 246.99 107.31 90.18 264.11"/><polygon class="cls-53" points="88.59 262.51 86.99 260.92 246.99 100.92 246.99 104.11 88.59 262.51"/><polygon class="cls-63" points="86.99 260.92 85.39 259.32 246.99 97.72 246.99 100.92 86.99 260.92"/><polygon class="cls-33" points="85.39 259.32 83.8 257.72 246.99 94.53 246.99 97.72 85.39 259.32"/><polygon class="cls-16" points="83.8 257.72 82.2 256.13 246.99 91.34 246.99 94.53 83.8 257.72"/><polygon class="cls-41" points="82.2 256.13 80.6 254.53 245.93 89.2 246.99 90.26 246.99 91.34 82.2 256.13"/><rect class="cls-49" x="45.56" y="169.94" width="233.81" height="2.26" transform="translate(-73.38 164.99) rotate(-45)"/><rect class="cls-66" x="43.97" y="168.34" width="233.81" height="2.26" transform="translate(-72.71 163.39) rotate(-45)"/><rect class="cls-71" x="42.37" y="166.74" width="233.81" height="2.26" transform="translate(-72.05 161.79) rotate(-45)"/><rect class="cls-71" x="40.65" y="164.85" width="233.81" height="2.6" transform="translate(-71.34 160.07) rotate(-45)"/><rect class="cls-66" x="38.81" y="163.01" width="233.81" height="2.6" transform="translate(-70.58 158.23) rotate(-45)"/><polygon class="cls-84" points="72.13 246.06 70.92 244.85 70.92 243.58 235.62 78.89 237.46 80.73 72.13 246.06"/><polygon class="cls-28" points="70.92 239.9 233.78 77.05 235.62 78.89 70.92 243.58 70.92 239.9"/><polygon class="cls-91" points="70.92 236.22 231.94 75.21 233.78 77.05 70.92 239.9 70.92 236.22"/><polygon class="cls-23" points="70.92 232.54 230.1 73.37 231.94 75.21 70.92 236.22 70.92 232.54"/><polygon class="cls-25" points="70.92 228.86 228.26 71.53 230.1 73.37 70.92 232.54 70.92 228.86"/><polygon class="cls-5" points="70.92 225.18 226.42 69.69 228.26 71.53 70.92 228.86 70.92 225.18"/><polygon class="cls-58" points="70.92 221.5 224.58 67.85 226.42 69.69 70.92 225.18 70.92 221.5"/><polygon class="cls-13" points="70.92 217.82 222.74 66.01 224.58 67.85 70.92 221.5 70.92 217.82"/><polygon class="cls-95" points="70.92 214.14 220.9 64.17 222.74 66.01 70.92 217.82 70.92 214.14"/><polygon class="cls-97" points="70.92 210.46 219.06 62.33 220.9 64.17 70.92 214.14 70.92 210.46"/><polygon class="cls-29" points="70.92 206.78 217.22 60.49 219.06 62.33 70.92 210.46 70.92 206.78"/><polygon class="cls-100" points="70.92 203.1 215.38 58.65 217.22 60.49 70.92 206.78 70.92 203.1"/><polygon class="cls-50" points="70.92 199.42 213.54 56.8 215.38 58.65 70.92 203.1 70.92 199.42"/><polygon class="cls-30" points="70.92 195.74 211.7 54.96 213.54 56.8 70.92 199.42 70.92 195.74"/><polygon class="cls-96" points="70.92 192.06 209.86 53.12 211.7 54.96 70.92 195.74 70.92 192.06"/><polygon class="cls-92" points="70.92 188.38 208.02 51.28 209.86 53.12 70.92 192.06 70.92 188.38"/><polygon class="cls-2" points="70.92 184.7 206.18 49.44 208.02 51.28 70.92 188.38 70.92 184.7"/><polygon class="cls-67" points="70.92 181.02 204.34 47.6 206.18 49.44 70.92 184.7 70.92 181.02"/><polygon class="cls-31" points="70.92 177.34 202.5 45.76 204.34 47.6 70.92 181.02 70.92 177.34"/><polygon class="cls-98" points="70.92 173.66 200.66 43.92 202.5 45.76 70.92 177.34 70.92 173.66"/><polygon class="cls-3" points="70.92 169.98 198.82 42.08 200.66 43.92 70.92 173.66 70.92 169.98"/><polygon class="cls-79" points="70.92 166.3 196.98 40.24 198.82 42.08 70.92 169.98 70.92 166.3"/><polygon class="cls-7" points="70.92 162.62 195.14 38.4 196.98 40.24 70.92 166.3 70.92 162.62"/><polygon class="cls-42" points="70.92 158.94 193.3 36.56 195.14 38.4 70.92 162.62 70.92 158.94"/><polygon class="cls-24" points="70.92 155.26 191.46 34.72 193.3 36.56 70.92 158.94 70.92 155.26"/><polygon class="cls-34" points="70.92 151.58 189.62 32.88 191.46 34.72 70.92 155.26 70.92 151.58"/><polygon class="cls-54" points="70.92 147.9 187.78 31.04 189.62 32.88 70.92 151.58 70.92 147.9"/><polygon class="cls-51" points="70.92 144.22 185.94 29.2 187.78 31.04 70.92 147.9 70.92 144.22"/><polygon class="cls-44" points="70.92 140.54 184.1 27.36 185.94 29.2 70.92 144.22 70.92 140.54"/><polygon class="cls-39" points="70.92 136.86 182.26 25.52 184.1 27.36 70.92 140.54 70.92 136.86"/><polygon class="cls-57" points="70.92 133.18 180.42 23.68 182.26 25.52 70.92 136.86 70.92 133.18"/><polygon class="cls-85" points="70.92 129.5 178.58 21.84 180.42 23.68 70.92 133.18 70.92 129.5"/><polygon class="cls-86" points="70.92 125.82 176.74 20 178.58 21.84 70.92 129.5 70.92 125.82"/><polygon class="cls-40" points="70.92 122.13 174.9 18.16 176.74 20 70.92 125.82 70.92 122.13"/><polygon class="cls-77" points="70.92 118.45 173.06 16.32 174.9 18.16 70.92 122.13 70.92 118.45"/><polygon class="cls-80" points="70.92 114.77 171.22 14.48 173.06 16.32 70.92 118.45 70.92 114.77"/><polygon class="cls-20" points="70.92 111.09 169.38 12.64 171.22 14.48 70.92 114.77 70.92 111.09"/><polygon class="cls-90" points="70.92 107.41 167.54 10.8 169.38 12.64 70.92 111.09 70.92 107.41"/><polygon class="cls-69" points="70.92 103.73 165.7 8.96 167.54 10.8 70.92 107.41 70.92 103.73"/><polygon class="cls-65" points="70.92 100.05 163.86 7.12 165.7 8.96 70.92 103.73 70.92 100.05"/><polygon class="cls-59" points="70.92 96.37 162.02 5.28 163.86 7.12 70.92 100.05 70.92 96.37"/><polygon class="cls-43" points="70.92 92.69 159.56 4.06 160.79 4.06 162.02 5.28 70.92 96.37 70.92 92.69"/><polygon class="cls-9" points="70.92 89.01 155.88 4.06 159.56 4.06 70.92 92.69 70.92 89.01"/><polygon class="cls-1" points="70.92 85.33 152.2 4.06 155.88 4.06 70.92 89.01 70.92 85.33"/><polygon class="cls-1" points="152.2 4.06 70.92 85.33 70.92 4.06 152.2 4.06"/><polygon class="cls-55" points="108.2 386.64 226.82 268.03 226.82 386.64 108.2 386.64"/><polygon class="cls-55" points="105 386.64 226.82 264.83 226.82 268.03 108.2 386.64 105 386.64"/><polygon class="cls-32" points="101.81 386.64 226.82 261.64 226.82 264.83 105 386.64 101.81 386.64"/><polygon class="cls-12" points="98.62 386.64 226.82 258.44 226.82 261.64 101.81 386.64 98.62 386.64"/><polygon class="cls-36" points="95.42 386.64 226.82 255.25 226.82 258.44 98.62 386.64 95.42 386.64"/><polygon class="cls-37" points="92.23 386.64 226.82 252.05 226.82 255.25 95.42 386.64 92.23 386.64"/><polygon class="cls-56" points="89.03 386.64 226.82 248.86 226.82 252.05 92.23 386.64 89.03 386.64"/><polygon class="cls-22" points="85.84 386.64 226.82 245.67 226.82 248.86 89.03 386.64 85.84 386.64"/><polygon class="cls-6" points="82.64 386.64 226.82 242.47 226.82 245.67 85.84 386.64 82.64 386.64"/><polygon class="cls-99" points="79.45 386.64 226.82 239.28 226.82 242.47 82.64 386.64 79.45 386.64"/><polygon class="cls-47" points="76.26 386.64 226.82 236.08 226.82 239.28 79.45 386.64 76.26 386.64"/><polygon class="cls-14" points="73.06 386.64 226.82 232.89 226.82 236.08 76.26 386.64 73.06 386.64"/><polygon class="cls-35" points="69.87 386.64 226.82 229.69 226.82 232.89 73.06 386.64 69.87 386.64"/><polygon class="cls-48" points="66.67 386.64 226.82 226.5 226.82 229.69 69.87 386.64 66.67 386.64"/><polygon class="cls-17" points="63.48 386.64 226.82 223.31 226.82 226.5 66.67 386.64 63.48 386.64"/><polygon class="cls-93" points="60.29 386.64 226.82 220.11 226.82 223.31 63.48 386.64 60.29 386.64"/><polygon class="cls-11" points="57.09 386.64 226.82 216.92 226.82 220.11 60.29 386.64 57.09 386.64"/><polygon class="cls-60" points="53.9 386.64 226.82 213.72 226.82 216.92 57.09 386.64 53.9 386.64"/><polygon class="cls-27" points="50.7 386.64 226.82 210.53 226.82 213.72 53.9 386.64 50.7 386.64"/><polygon class="cls-10" points="47.51 386.64 226.82 207.34 226.82 210.53 50.7 386.64 47.51 386.64"/><polygon class="cls-72" points="44.31 386.64 226.82 204.14 226.82 207.34 47.51 386.64 44.31 386.64"/><polygon class="cls-89" points="41.12 386.64 226.82 200.95 226.82 204.14 44.31 386.64 41.12 386.64"/><polygon class="cls-83" points="37.93 386.64 226.82 197.75 226.82 200.95 41.12 386.64 37.93 386.64"/><polygon class="cls-38" points="34.73 386.64 226.82 194.56 226.82 197.75 37.93 386.64 34.73 386.64"/><polygon class="cls-82" points="31.54 386.64 226.82 191.36 226.82 194.56 34.73 386.64 31.54 386.64"/><polygon class="cls-94" points="28.34 386.64 226.82 188.17 226.82 191.36 31.54 386.64 28.34 386.64"/><polygon class="cls-21" points="25.15 386.64 226.82 184.98 226.82 188.17 28.34 386.64 25.15 386.64"/><polygon class="cls-52" points="21.96 386.64 226.82 181.78 226.82 184.98 25.15 386.64 21.96 386.64"/><polygon class="cls-87" points="18.76 386.64 226.82 178.59 226.82 181.78 21.96 386.64 18.76 386.64"/><polygon class="cls-75" points="15.57 386.64 226.11 176.1 226.82 176.81 226.82 178.59 18.76 386.64 15.57 386.64"/><polygon class="cls-61" points="12.37 386.64 224.51 174.51 226.11 176.1 15.57 386.64 12.37 386.64"/><polygon class="cls-64" points="9.18 386.64 222.91 172.91 224.51 174.51 12.37 386.64 9.18 386.64"/><polygon class="cls-45" points="8.11 386.64 7.05 385.58 221.31 171.31 222.91 172.91 9.18 386.64 8.11 386.64"/><rect class="cls-15" x="-38.13" y="276.52" width="303.02" height="2.26" transform="translate(-163.12 161.49) rotate(-45)"/><polygon class="cls-78" points="5.45 383.98 4.06 382.59 4.06 382.18 218.12 168.12 219.72 169.71 5.45 383.98"/><polygon class="cls-81" points="4.06 378.98 216.52 166.52 218.12 168.12 4.06 382.18 4.06 378.98"/><polygon class="cls-4" points="4.06 375.79 214.93 164.92 216.52 166.52 4.06 378.98 4.06 375.79"/><polygon class="cls-62" points="4.06 372.59 213.33 163.33 214.93 164.92 4.06 375.79 4.06 372.59"/><polygon class="cls-8" points="4.06 369.4 211.73 161.73 213.33 163.33 4.06 372.59 4.06 369.4"/><polygon class="cls-19" points="4.06 366.21 210.14 160.13 211.73 161.73 4.06 369.4 4.06 366.21"/><polygon class="cls-88" points="4.06 363.01 208.54 158.53 210.14 160.13 4.06 366.21 4.06 363.01"/><polygon class="cls-74" points="4.06 359.82 206.94 156.94 208.54 158.53 4.06 363.01 4.06 359.82"/><polygon class="cls-26" points="4.06 356.62 205.34 155.34 206.94 156.94 4.06 359.82 4.06 356.62"/><polygon class="cls-68" points="4.06 353.43 203.75 153.74 205.34 155.34 4.06 356.62 4.06 353.43"/><polygon class="cls-73" points="4.06 350.24 202.15 152.15 203.75 153.74 4.06 353.43 4.06 350.24"/><polygon class="cls-18" points="4.06 347.04 200.55 150.55 202.15 152.15 4.06 350.24 4.06 347.04"/><polygon class="cls-53" points="4.06 343.85 198.96 148.95 200.55 150.55 4.06 347.04 4.06 343.85"/><polygon class="cls-63" points="4.06 340.65 197.36 147.36 198.96 148.95 4.06 343.85 4.06 340.65"/><polygon class="cls-33" points="4.06 337.46 195.76 145.76 197.36 147.36 4.06 340.65 4.06 337.46"/><polygon class="cls-16" points="4.06 334.26 194.16 144.16 195.76 145.76 4.06 337.46 4.06 334.26"/><polygon class="cls-41" points="4.06 331.07 192.57 142.56 194.16 144.16 4.06 334.26 4.06 331.07"/><polygon class="cls-49" points="4.06 327.88 190.97 140.97 192.57 142.56 4.06 331.07 4.06 327.88"/><polygon class="cls-66" points="4.06 324.68 189.37 139.37 190.97 140.97 4.06 327.88 4.06 324.68"/><polygon class="cls-71" points="4.06 321.49 187.78 137.77 189.37 139.37 4.06 324.68 4.06 321.49"/><polygon class="cls-71" points="4.06 317.81 185.94 135.93 187.78 137.77 4.06 321.49 4.06 317.81"/><polygon class="cls-66" points="4.06 314.13 184.1 134.09 185.94 135.93 4.06 317.81 4.06 314.13"/><polygon class="cls-84" points="4.06 310.45 182.26 132.25 184.1 134.09 4.06 314.13 4.06 310.45"/><polygon class="cls-28" points="4.06 306.77 180.42 130.41 182.26 132.25 4.06 310.45 4.06 306.77"/><polygon class="cls-91" points="4.06 303.09 178.57 128.57 180.42 130.41 4.06 306.77 4.06 303.09"/><polygon class="cls-23" points="4.06 299.41 176.73 126.73 178.57 128.57 4.06 303.09 4.06 299.41"/><polygon class="cls-25" points="4.06 295.73 174.89 124.89 176.73 126.73 4.06 299.41 4.06 295.73"/><polygon class="cls-5" points="4.06 292.05 173.05 123.05 174.89 124.89 4.06 295.73 4.06 292.05"/><polygon class="cls-58" points="4.06 288.37 171.21 121.21 173.05 123.05 4.06 292.05 4.06 288.37"/><polygon class="cls-13" points="4.06 284.69 169.37 119.37 171.21 121.21 4.06 288.37 4.06 284.69"/><polygon class="cls-95" points="4.06 281 167.53 117.53 169.37 119.37 4.06 284.69 4.06 281"/><polygon class="cls-97" points="4.06 277.32 165.69 115.69 167.53 117.53 4.06 281 4.06 277.32"/><polygon class="cls-29" points="4.06 273.64 162.48 115.22 165.22 115.22 165.69 115.69 4.06 277.32 4.06 273.64"/><polygon class="cls-100" points="4.06 269.96 158.8 115.22 162.48 115.22 4.06 273.64 4.06 269.96"/><polygon class="cls-50" points="4.06 266.28 155.12 115.22 158.8 115.22 4.06 269.96 4.06 266.28"/><polygon class="cls-30" points="4.06 262.6 151.44 115.22 155.12 115.22 4.06 266.28 4.06 262.6"/><polygon class="cls-96" points="4.06 258.92 147.76 115.22 151.44 115.22 4.06 262.6 4.06 258.92"/><polygon class="cls-92" points="4.06 255.24 144.08 115.22 147.76 115.22 4.06 258.92 4.06 255.24"/><polygon class="cls-2" points="4.06 251.56 140.4 115.22 144.08 115.22 4.06 255.24 4.06 251.56"/><polygon class="cls-67" points="4.06 247.88 136.72 115.22 140.4 115.22 4.06 251.56 4.06 247.88"/><polygon class="cls-31" points="4.06 244.2 133.04 115.22 136.72 115.22 4.06 247.88 4.06 244.2"/><polygon class="cls-98" points="4.06 240.52 129.36 115.22 133.04 115.22 4.06 244.2 4.06 240.52"/><polygon class="cls-3" points="4.06 236.84 125.68 115.22 129.36 115.22 4.06 240.52 4.06 236.84"/><polygon class="cls-79" points="4.06 233.16 122 115.22 125.68 115.22 4.06 236.84 4.06 233.16"/><polygon class="cls-7" points="4.06 229.48 118.32 115.22 122 115.22 4.06 233.16 4.06 229.48"/><polygon class="cls-42" points="4.06 225.8 114.64 115.22 118.32 115.22 4.06 229.48 4.06 225.8"/><polygon class="cls-24" points="4.06 222.12 110.96 115.22 114.64 115.22 4.06 225.8 4.06 222.12"/><polygon class="cls-34" points="4.06 218.44 107.28 115.22 110.96 115.22 4.06 222.12 4.06 218.44"/><polygon class="cls-54" points="4.06 214.76 103.6 115.22 107.28 115.22 4.06 218.44 4.06 214.76"/><polygon class="cls-51" points="4.06 211.08 99.92 115.22 103.6 115.22 4.06 214.76 4.06 211.08"/><polygon class="cls-44" points="4.06 207.4 96.24 115.22 99.92 115.22 4.06 211.08 4.06 207.4"/><polygon class="cls-39" points="4.06 203.72 92.56 115.22 96.24 115.22 4.06 207.4 4.06 203.72"/><polygon class="cls-57" points="4.06 200.04 88.88 115.22 92.56 115.22 4.06 203.72 4.06 200.04"/><polygon class="cls-85" points="4.06 196.36 85.2 115.22 88.88 115.22 4.06 200.04 4.06 196.36"/><polygon class="cls-86" points="4.06 192.68 81.52 115.22 85.2 115.22 4.06 196.36 4.06 192.68"/><polygon class="cls-40" points="4.06 189 77.84 115.22 81.52 115.22 4.06 192.68 4.06 189"/><polygon class="cls-77" points="4.06 185.32 74.16 115.22 77.84 115.22 4.06 189 4.06 185.32"/><polygon class="cls-80" points="4.06 181.64 70.48 115.22 74.16 115.22 4.06 185.32 4.06 181.64"/><polygon class="cls-20" points="4.06 177.96 66.8 115.22 70.48 115.22 4.06 181.64 4.06 177.96"/><polygon class="cls-90" points="4.06 174.28 63.12 115.22 66.8 115.22 4.06 177.96 4.06 174.28"/><polygon class="cls-69" points="4.06 170.6 59.44 115.22 63.12 115.22 4.06 174.28 4.06 170.6"/><polygon class="cls-65" points="4.06 166.92 55.76 115.22 59.44 115.22 4.06 170.6 4.06 166.92"/><polygon class="cls-59" points="4.06 163.24 52.08 115.22 55.76 115.22 4.06 166.92 4.06 163.24"/><polygon class="cls-43" points="4.06 159.56 48.4 115.22 52.08 115.22 4.06 163.24 4.06 159.56"/><polygon class="cls-9" points="4.06 155.88 44.72 115.22 48.4 115.22 4.06 159.56 4.06 155.88"/><polygon class="cls-1" points="4.06 152.2 41.04 115.22 44.72 115.22 4.06 155.88 4.06 152.2"/><polygon class="cls-1" points="41.04 115.22 4.06 152.2 4.06 115.22 41.04 115.22"/></g></g></g></svg>