<?xml version="1.0" encoding="UTF-8"?><svg id="Camada_2" xmlns="http://www.w3.org/2000/svg" viewBox="0 0 243.58 390.7"><defs><style>.cls-1{fill:#31344c;}</style></defs><g id="LOGO"><path class="cls-1" d="M231.62,154.46c-23.08-40.56-60.87-53.22-67.61-55.8v117.16c.04,1.67-.01,3.31-.13,4.93,.08,1.11,.13,2.22,.13,3.34,0,25.03-20.79,47.94-48.36,47.94s-48.79-22.91-48.79-47.94,20.79-48.36,48.79-48.36c10.6,0,20.18,3.39,27.98,9,.44,.25,.88,.5,1.3,.76V9.52c0-5.02,3.87-9.16,8.87-9.5,4.92-.29,9.43,3.24,10.11,8.2,.69,4.9,5.02,10.74,8.85,15.89l1.16,1.56c6.49,8.78,15.66,14.92,25.38,21.43,13.01,8.72,25.64,18.19,34.33,33.81,22.94,41.27-.81,73-2.01,73.54Zm-55.03-26.31v58.32c6.8,10.95,10.74,23.86,10.74,37.68,0,39.19-32.13,71.08-71.62,71.08s-72.17-31.88-72.17-71.08,32.37-71.62,72.17-71.62c5.98,0,11.78,.74,17.34,2.13v-42.24c-5.68-.83-11.47-1.25-17.34-1.25-31.74,0-61.28,12.28-83.18,34.58C11.86,166.8,0,194.98,0,223.06v147.23c0,9.82,8.43,20.41,22.04,20.41s21.5-10.6,21.5-20.41v-56.53l14.09,7.65c18.56,10.07,38.09,15.18,58.07,15.18,31.86,0,61.36-12.36,83.06-34.8,20.4-21.1,32.1-49.39,32.1-77.64s-11.7-56.96-32.11-78.13c-6.7-6.95-14.14-12.92-22.17-17.87Z"/></g></svg>