<?xml version="1.0" encoding="UTF-8"?><svg id="Camada_2" xmlns="http://www.w3.org/2000/svg" xmlns:xlink="http://www.w3.org/1999/xlink" viewBox="0 0 1353.5 390.7"><defs><style>.cls-1{fill:url(#New_Gradient_Swatch);}.cls-2{fill:#31344c;}</style><linearGradient id="New_Gradient_Swatch" x1="0" y1="195.35" x2="1353.5" y2="195.35" gradientUnits="userSpaceOnUse"><stop offset="0" stop-color="#d2b770"/><stop offset=".5" stop-color="#ffec94"/><stop offset="1" stop-color="#d7be69"/></linearGradient></defs><g id="LOGO"><g><g><path class="cls-2" d="M231.62,154.46c-23.08-40.56-60.87-53.22-67.61-55.8v117.16c.04,1.67-.01,3.31-.13,4.93,.08,1.11,.13,2.22,.13,3.34,0,25.03-20.79,47.94-48.36,47.94s-48.79-22.91-48.79-47.94,20.79-48.36,48.79-48.36c10.6,0,20.18,3.39,27.98,9,.44,.25,.88,.5,1.3,.76V9.52c0-5.02,3.87-9.16,8.87-9.5,4.92-.29,9.43,3.24,10.11,8.2,.69,4.9,5.02,10.74,8.85,15.89l1.16,1.56c6.49,8.78,15.66,14.92,25.38,21.43,13.01,8.72,25.64,18.19,34.33,33.81,22.94,41.27-.81,73-2.01,73.54Zm-55.03-26.31v58.32c6.8,10.95,10.74,23.86,10.74,37.68,0,39.19-32.13,71.08-71.62,71.08s-72.17-31.88-72.17-71.08,32.37-71.62,72.17-71.62c5.98,0,11.78,.74,17.34,2.13v-42.24c-5.68-.83-11.47-1.25-17.34-1.25-31.74,0-61.28,12.28-83.18,34.58C11.86,166.8,0,194.98,0,223.06v147.23c0,9.82,8.43,20.41,22.04,20.41s21.5-10.6,21.5-20.41v-56.53l14.09,7.65c18.56,10.07,38.09,15.18,58.07,15.18,31.86,0,61.36-12.36,83.06-34.8,20.4-21.1,32.1-49.39,32.1-77.64s-11.7-56.96-32.11-78.13c-6.7-6.95-14.14-12.92-22.17-17.87Z"/><g><path d="M434.06,230.9c0,35.96-26.42,53.04-48.48,53.04-18.87,0-31.19-12.52-32.58-21.46v10.73c0,.6,0,1.39-.2,1.99v35.76c0,5.76-4.77,10.53-10.53,10.53s-10.53-4.77-10.53-10.53v-121.78c0-5.76,4.97-10.53,10.73-10.53s10.53,4.77,10.53,10.53v7.95c5.17-11.52,17.88-19.07,32.58-19.07,21.85,0,48.48,17.48,48.48,52.85Zm-21.06,0c0-23.44-16.29-34.77-30.79-34.77-13.51,0-30.2,9.93-30.2,34.77s16.69,34.97,30.2,34.97c14.5,0,30.79-11.32,30.79-34.97Z"/><path d="M453.93,238.06v-48.87c0-5.76,4.57-10.53,10.33-10.53s10.53,4.77,10.53,10.53v48.87c0,19.87,11.32,27.81,24.24,27.81,19.07,0,27.42-17.09,28.61-25.63v-51.06c0-5.76,4.77-10.53,10.53-10.53s10.53,4.77,10.53,10.53v83.64c0,5.96-4.77,10.73-10.53,10.73s-10.53-4.77-10.53-10.73v-13.11c-.99,6.95-12.91,24.24-35.56,24.24-19.27,0-38.14-12.12-38.14-45.89Z"/><path d="M637.3,187.99c0,5.96-4.57,9.93-13.51,9.93-17.48,0-28.81,13.51-30.2,24.04v51.06c0,5.76-4.77,10.53-10.53,10.53s-10.53-4.77-10.53-10.53v-83.64c0-5.96,4.77-10.73,10.53-10.73s10.53,4.77,10.53,10.73v13.11c.99-6.95,13.51-24.24,32.98-24.24,6.95,0,10.73,4.37,10.73,9.73Z"/><path d="M745.57,227.53c0,8.15-4.57,11.32-13.11,11.32l-66.55-.2c2.19,18.48,16.69,27.61,32.58,27.61,8.15,0,13.71-1.99,19.87-5.76,3.38-1.79,5.56-3.18,8.34-3.18,4.57,0,7.35,3.18,7.35,7.55,0,2.58-.99,5.36-5.36,8.94-7.55,6.16-18.48,9.73-30.99,9.73-25.83,0-53.44-16.49-53.44-52.45s28.81-53.04,51.46-53.04,49.87,17.88,49.87,49.47Zm-79.67-3.97h59.2c-1.79-18.87-16.09-27.22-29.4-27.22s-28.01,8.34-29.8,27.22Z"/><path d="M985.57,224.15v48.87c0,5.76-4.77,10.53-10.33,10.53s-10.53-4.77-10.53-10.53v-48.87c0-19.87-11.32-27.81-24.24-27.81-19.07,0-27.42,17.09-28.81,25.63v51.06c0,5.76-4.57,10.53-10.33,10.53s-10.53-4.77-10.53-10.53v-48.87c0-19.87-11.32-27.81-24.24-27.81-19.07,0-27.42,17.09-28.61,25.63v51.06c0,5.76-4.77,10.53-10.53,10.53s-10.53-4.77-10.53-10.53v-83.64c0-5.96,4.77-10.73,10.53-10.73s10.53,4.77,10.53,10.73v13.11c.99-6.95,12.91-24.24,35.56-24.24,14.7,0,29.4,7.15,35.36,25.63,5.56-12.32,18.28-25.63,38.54-25.63s38.14,12.12,38.14,45.89Z"/><path d="M1009.41,238.06v-48.87c0-5.76,4.57-10.53,10.33-10.53s10.53,4.77,10.53,10.53v48.87c0,19.87,11.32,27.81,24.24,27.81,19.07,0,27.42-17.09,28.61-25.63v-51.06c0-5.76,4.77-10.53,10.53-10.53s10.53,4.77,10.53,10.53v83.64c0,5.96-4.77,10.73-10.53,10.73s-10.53-4.77-10.53-10.73v-13.11c-.99,6.95-12.91,24.24-35.56,24.24-19.27,0-38.14-12.12-38.14-45.89Z"/><path d="M1195.36,193.55c1.19,1.79,2.78,3.97,2.78,7.35,0,4.97-3.78,7.95-8.54,7.95-3.18,0-6.16-1.39-9.14-5.36-3.97-4.97-9.54-8.34-17.68-8.34-9.93,0-15.89,4.97-15.89,12.12,0,4.97,2.78,9.73,13.31,12.71l12.32,3.38c16.89,4.57,29.6,12.12,29.6,28.81,0,20.86-19.67,31.39-40.33,31.39-17.28,0-29.4-7.55-34.57-15.69-.99-1.39-4.17-5.36-4.17-10.13,0-4.17,2.58-8.54,8.15-8.54,4.57,0,6.95,2.78,8.94,5.76,4.97,8.34,13.11,11.13,21.66,11.13,11.52,0,19.47-4.77,19.47-12.71,0-5.96-4.17-10.33-14.11-13.11l-13.31-3.58c-19.27-5.36-27.62-15.69-27.62-29.2,0-18.67,16.89-29.4,36.16-29.4,14.3,0,26.62,5.76,32.98,15.5Z"/><path d="M1220.99,149.25c0-5.76,4.97-10.53,10.73-10.53s10.73,4.77,10.73,10.53-4.97,10.53-10.73,10.53-10.73-4.77-10.73-10.53Zm21.26,40.13v83.64c0,5.96-4.77,10.73-10.53,10.73s-10.53-4.77-10.53-10.73v-83.64c0-5.96,4.77-10.73,10.53-10.73s10.53,4.77,10.53,10.73Z"/><path d="M1353.5,260.51c0,4.77-3.38,7.35-5.56,9.54-8.54,8.94-19.67,13.51-33.38,13.51-23.64,0-52.25-17.28-52.25-52.65s28.61-52.85,52.25-52.85c13.71,0,24.83,4.57,33.38,13.51,2.19,2.19,5.56,4.77,5.56,9.54s-4.17,8.15-8.54,8.15c-3.97,0-6.95-2.19-8.54-3.77-5.36-6.36-13.71-9.14-21.06-9.14-16.69,0-32.18,11.92-32.18,34.57s15.5,34.37,32.18,34.37c7.35,0,15.7-2.78,21.06-9.14,1.59-1.59,4.57-3.77,8.54-3.77,4.37,0,8.54,3.18,8.54,8.15Z"/></g></g><g><path class="cls-1" d="M231.62,154.46c-23.08-40.56-60.87-53.22-67.61-55.8v117.16c.04,1.67-.01,3.31-.13,4.93,.08,1.11,.13,2.22,.13,3.34,0,25.03-20.79,47.94-48.36,47.94s-48.79-22.91-48.79-47.94,20.79-48.36,48.79-48.36c10.6,0,20.18,3.39,27.98,9,.44,.25,.88,.5,1.3,.76V9.52c0-5.02,3.87-9.16,8.87-9.5,4.92-.29,9.43,3.24,10.11,8.2,.69,4.9,5.02,10.74,8.85,15.89l1.16,1.56c6.49,8.78,15.66,14.92,25.38,21.43,13.01,8.72,25.64,18.19,34.33,33.81,22.94,41.27-.81,73-2.01,73.54Zm-55.03-26.31v58.32c6.8,10.95,10.74,23.86,10.74,37.68,0,39.19-32.13,71.08-71.62,71.08s-72.17-31.88-72.17-71.08,32.37-71.62,72.17-71.62c5.98,0,11.78,.74,17.34,2.13v-42.24c-5.68-.83-11.47-1.25-17.34-1.25-31.74,0-61.28,12.28-83.18,34.58C11.86,166.8,0,194.98,0,223.06v147.23c0,9.82,8.43,20.41,22.04,20.41s21.5-10.6,21.5-20.41v-56.53l14.09,7.65c18.56,10.07,38.09,15.18,58.07,15.18,31.86,0,61.36-12.36,83.06-34.8,20.4-21.1,32.1-49.39,32.1-77.64s-11.7-56.96-32.11-78.13c-6.7-6.95-14.14-12.92-22.17-17.87Z"/><g><path class="cls-1" d="M434.06,230.9c0,35.96-26.42,53.04-48.48,53.04-18.87,0-31.19-12.52-32.58-21.46v10.73c0,.6,0,1.39-.2,1.99v35.76c0,5.76-4.77,10.53-10.53,10.53s-10.53-4.77-10.53-10.53v-121.78c0-5.76,4.97-10.53,10.73-10.53s10.53,4.77,10.53,10.53v7.95c5.17-11.52,17.88-19.07,32.58-19.07,21.85,0,48.48,17.48,48.48,52.85Zm-21.06,0c0-23.44-16.29-34.77-30.79-34.77-13.51,0-30.2,9.93-30.2,34.77s16.69,34.97,30.2,34.97c14.5,0,30.79-11.32,30.79-34.97Z"/><path class="cls-1" d="M453.93,238.06v-48.87c0-5.76,4.57-10.53,10.33-10.53s10.53,4.77,10.53,10.53v48.87c0,19.87,11.32,27.81,24.24,27.81,19.07,0,27.42-17.09,28.61-25.63v-51.06c0-5.76,4.77-10.53,10.53-10.53s10.53,4.77,10.53,10.53v83.64c0,5.96-4.77,10.73-10.53,10.73s-10.53-4.77-10.53-10.73v-13.11c-.99,6.95-12.91,24.24-35.56,24.24-19.27,0-38.14-12.12-38.14-45.89Z"/><path class="cls-1" d="M637.3,187.99c0,5.96-4.57,9.93-13.51,9.93-17.48,0-28.81,13.51-30.2,24.04v51.06c0,5.76-4.77,10.53-10.53,10.53s-10.53-4.77-10.53-10.53v-83.64c0-5.96,4.77-10.73,10.53-10.73s10.53,4.77,10.53,10.73v13.11c.99-6.95,13.51-24.24,32.98-24.24,6.95,0,10.73,4.37,10.73,9.73Z"/><path class="cls-1" d="M745.57,227.53c0,8.15-4.57,11.32-13.11,11.32l-66.55-.2c2.19,18.48,16.69,27.61,32.58,27.61,8.15,0,13.71-1.99,19.87-5.76,3.38-1.79,5.56-3.18,8.34-3.18,4.57,0,7.35,3.18,7.35,7.55,0,2.58-.99,5.36-5.36,8.94-7.55,6.16-18.48,9.73-30.99,9.73-25.83,0-53.44-16.49-53.44-52.45s28.81-53.04,51.46-53.04,49.87,17.88,49.87,49.47Zm-79.67-3.97h59.2c-1.79-18.87-16.09-27.22-29.4-27.22s-28.01,8.34-29.8,27.22Z"/><path class="cls-1" d="M985.57,224.15v48.87c0,5.76-4.77,10.53-10.33,10.53s-10.53-4.77-10.53-10.53v-48.87c0-19.87-11.32-27.81-24.24-27.81-19.07,0-27.42,17.09-28.81,25.63v51.06c0,5.76-4.57,10.53-10.33,10.53s-10.53-4.77-10.53-10.53v-48.87c0-19.87-11.32-27.81-24.24-27.81-19.07,0-27.42,17.09-28.61,25.63v51.06c0,5.76-4.77,10.53-10.53,10.53s-10.53-4.77-10.53-10.53v-83.64c0-5.96,4.77-10.73,10.53-10.73s10.53,4.77,10.53,10.73v13.11c.99-6.95,12.91-24.24,35.56-24.24,14.7,0,29.4,7.15,35.36,25.63,5.56-12.32,18.28-25.63,38.54-25.63s38.14,12.12,38.14,45.89Z"/><path class="cls-1" d="M1009.41,238.06v-48.87c0-5.76,4.57-10.53,10.33-10.53s10.53,4.77,10.53,10.53v48.87c0,19.87,11.32,27.81,24.24,27.81,19.07,0,27.42-17.09,28.61-25.63v-51.06c0-5.76,4.77-10.53,10.53-10.53s10.53,4.77,10.53,10.53v83.64c0,5.96-4.77,10.73-10.53,10.73s-10.53-4.77-10.53-10.73v-13.11c-.99,6.95-12.91,24.24-35.56,24.24-19.27,0-38.14-12.12-38.14-45.89Z"/><path class="cls-1" d="M1195.36,193.55c1.19,1.79,2.78,3.97,2.78,7.35,0,4.97-3.78,7.95-8.54,7.95-3.18,0-6.16-1.39-9.14-5.36-3.97-4.97-9.54-8.34-17.68-8.34-9.93,0-15.89,4.97-15.89,12.12,0,4.97,2.78,9.73,13.31,12.71l12.32,3.38c16.89,4.57,29.6,12.12,29.6,28.81,0,20.86-19.67,31.39-40.33,31.39-17.28,0-29.4-7.55-34.57-15.69-.99-1.39-4.17-5.36-4.17-10.13,0-4.17,2.58-8.54,8.15-8.54,4.57,0,6.95,2.78,8.94,5.76,4.97,8.34,13.11,11.13,21.66,11.13,11.52,0,19.47-4.77,19.47-12.71,0-5.96-4.17-10.33-14.11-13.11l-13.31-3.58c-19.27-5.36-27.62-15.69-27.62-29.2,0-18.67,16.89-29.4,36.16-29.4,14.3,0,26.62,5.76,32.98,15.5Z"/><path class="cls-1" d="M1220.99,149.25c0-5.76,4.97-10.53,10.73-10.53s10.73,4.77,10.73,10.53-4.97,10.53-10.73,10.53-10.73-4.77-10.73-10.53Zm21.26,40.13v83.64c0,5.96-4.77,10.73-10.53,10.73s-10.53-4.77-10.53-10.73v-83.64c0-5.96,4.77-10.73,10.53-10.73s10.53,4.77,10.53,10.73Z"/><path class="cls-1" d="M1353.5,260.51c0,4.77-3.38,7.35-5.56,9.54-8.54,8.94-19.67,13.51-33.38,13.51-23.64,0-52.25-17.28-52.25-52.65s28.61-52.85,52.25-52.85c13.71,0,24.83,4.57,33.38,13.51,2.19,2.19,5.56,4.77,5.56,9.54s-4.17,8.15-8.54,8.15c-3.97,0-6.95-2.19-8.54-3.77-5.36-6.36-13.71-9.14-21.06-9.14-16.69,0-32.18,11.92-32.18,34.57s15.5,34.37,32.18,34.37c7.35,0,15.7-2.78,21.06-9.14,1.59-1.59,4.57-3.77,8.54-3.77,4.37,0,8.54,3.18,8.54,8.15Z"/></g></g></g></g></svg>